<svg width="148" height="21" viewBox="0 0 148 21" fill="none" xmlns="http://www.w3.org/2000/svg">
<path d="M-5.85616e-05 21V-1.43051e-06H4.25994V4.2H12.2699L15.6899 7.62V17.58L12.2699 21H-5.85616e-05ZM4.25994 17.4H11.4299V7.8H4.25994V17.4ZM18.3935 17.82V7.38L21.5735 4.2H30.5135L33.6935 7.38V17.82L30.5135 21H21.5735L18.3935 17.82ZM22.6535 17.52H29.4335V7.68H22.6535V17.52ZM36.3817 17.82V7.38L39.5617 4.2H50.3017V8.04H40.6417V17.16H50.3017V21H39.5617L36.3817 17.82ZM52.6464 21V-1.43051e-06H56.9064V4.2H64.8264L68.1264 7.5V21H63.8664V7.8H56.9064V21H52.6464ZM71.2499 21V-1.43051e-06H75.5099V10.47H79.1999L82.6499 4.2H87.4799L82.7399 11.94L87.7499 21H82.9499L79.4099 14.07H75.5099V21H71.2499ZM89.2019 17.7V11.4L100.122 11.1V7.8H89.8019V4.2H101.082L104.382 7.5V21H92.5019L89.2019 17.7ZM93.4619 14.04V17.52H100.122V13.44L93.4619 14.04ZM107.85 21V16.8H111.87V21H107.85ZM130.822 4.2V21H118.642L115.342 17.7V4.2H119.602V17.28H126.562V4.2H130.822ZM133.165 21V18L142.165 7.8H133.285V4.2H147.415V7.2L138.415 17.4H147.505V21H133.165Z" fill="#0073FF"/>
</svg>
