<svg width="65" height="33" viewBox="0 0 65 33" fill="none" xmlns="http://www.w3.org/2000/svg">
<g clip-path="url(#clip0_723_11694)">
<path d="M0 5.3418V23.0576L2.31847 23.0664V14.6303H7.89172V12.3982H2.30955V7.56506H9.57707V5.3418H0ZM13.7325 8.94472C14.1345 8.94472 14.5201 8.78732 14.8044 8.50716C15.0887 8.22701 15.2484 7.84703 15.2484 7.45082C15.2484 7.05462 15.0887 6.67464 14.8044 6.39448C14.5201 6.11432 14.1345 5.95693 13.7325 5.95693C13.3304 5.95693 12.9449 6.11432 12.6606 6.39448C12.3763 6.67464 12.2166 7.05462 12.2166 7.45082C12.2166 7.84703 12.3763 8.22701 12.6606 8.50716C12.9449 8.78732 13.3304 8.94472 13.7325 8.94472ZM12.5643 11.168V23.0664H14.8828V11.168H12.5643Z" fill="black"/>
<path fill-rule="evenodd" clip-rule="evenodd" d="M23.4522 10.8253C20.3847 10.8253 18.2446 13.3824 18.2446 16.423C18.2446 19.4635 20.3847 22.0207 23.4522 22.0207C24.8611 22.0207 26.0204 21.4934 26.8675 20.6146V22.1964C26.8734 22.669 26.7842 23.1381 26.605 23.5766C26.4258 24.015 26.1602 24.4141 25.8235 24.7508C25.4869 25.0874 25.0858 25.355 24.6436 25.538C24.2014 25.721 23.7267 25.8158 23.2471 25.8169C22.507 25.8169 21.7758 25.5357 21.1962 25.1315L20.0369 27.1087C20.9333 27.6797 21.9694 28.0017 23.036 28.0407C24.1026 28.0797 25.1602 27.8343 26.097 27.3304C27.0339 26.8265 27.8154 26.0827 28.359 25.1776C28.9027 24.2724 29.1884 23.2395 29.186 22.1876V11.1768H26.8675V12.2401C26.0204 11.3613 24.8611 10.834 23.4522 10.834V10.8253ZM20.5541 16.423C20.5541 14.5336 22.0165 13.0485 23.7108 13.0485C25.4051 13.0485 26.8586 14.5424 26.8586 16.423C26.8586 18.3123 25.3962 19.7886 23.7108 19.7886C22.0165 19.7886 20.5541 18.3123 20.5541 16.423Z" fill="black"/>
<path d="M37.5146 13.0486C36.8515 13.0601 36.2197 13.3284 35.7558 13.7955C35.2919 14.2625 35.0332 14.8907 35.0356 15.5443V23.0664H32.7172V11.168H35.0356V12.2577C35.3825 11.8046 35.8331 11.4387 36.3506 11.1898C36.8682 10.9409 37.4381 10.816 38.014 10.8253C39.6369 10.8253 40.8853 11.6162 41.5987 12.8289C41.9967 12.221 42.5414 11.7197 43.1841 11.3701C43.8268 11.0204 44.5474 10.8333 45.2815 10.8253C47.9121 10.8253 49.5617 12.9168 49.5617 15.5091V23.0664H47.2611V15.5355C47.2636 14.8819 47.0048 14.2537 46.5409 13.7867C46.077 13.3196 45.4452 13.0513 44.7821 13.0398C44.119 13.0513 43.4872 13.3196 43.0233 13.7867C42.5594 14.2537 42.3007 14.8819 42.3031 15.5355V23.0577H39.9847V15.5355C39.9872 14.8834 39.7297 14.2565 39.2677 13.7897C38.8057 13.3229 38.1761 13.0536 37.5146 13.0398V13.0486Z" fill="black"/>
<path fill-rule="evenodd" clip-rule="evenodd" d="M61.8943 12.5213C61.3678 11.9803 60.7349 11.5508 60.0341 11.2592C59.3334 10.9676 58.5797 10.8199 57.8191 10.8253C54.3771 10.8253 51.9338 13.69 51.9338 17.1172C51.9338 20.5444 54.3771 23.4091 57.8191 23.4091C58.5795 23.4129 59.3327 23.2646 60.0332 22.9731C60.7337 22.6815 61.3668 22.2529 61.8943 21.7131V23.0664H64.2038V11.168H61.8854V12.5213H61.8943ZM54.2433 17.1172C54.2433 14.85 56.0089 13.0486 58.0688 13.0486C60.1198 13.0486 61.8943 14.85 61.8943 17.1172C61.8943 19.3844 60.1287 21.1771 58.0688 21.1771C56.0178 21.1771 54.2433 19.3844 54.2433 17.1172Z" fill="black"/>
</g>
<defs>
<clipPath id="clip0_723_11694">
<rect width="64.2038" height="32.0512" fill="white"/>
</clipPath>
</defs>
</svg>
