<svg width="92" height="28" viewBox="0 0 92 28" fill="none" xmlns="http://www.w3.org/2000/svg">
<g clip-path="url(#clip0_723_11699)">
<path d="M36.7531 14.9419L35.1587 10.8624C35.0936 10.6955 34.845 10.6955 34.7798 10.8624L33.1856 14.9421C33.1743 14.9711 33.1705 15.0023 33.1747 15.033C33.1788 15.0637 33.1906 15.093 33.2093 15.1183C33.2279 15.1437 33.2527 15.1644 33.2816 15.1788C33.3104 15.1931 33.3426 15.2005 33.3751 15.2005H36.5636C36.5962 15.2005 36.6283 15.193 36.6572 15.1787C36.6861 15.1644 36.7109 15.1436 36.7295 15.1182C36.7481 15.0928 36.7599 15.0636 36.764 15.0329C36.7681 15.0022 36.7643 14.971 36.753 14.942L36.7531 14.9419ZM37.4897 17.2349H32.4492C32.408 17.2349 32.3677 17.2469 32.3339 17.2693C32.3 17.2916 32.2742 17.3233 32.2598 17.36L31.2675 19.8984C31.2531 19.9351 31.2273 19.9667 31.1934 19.9891C31.1596 20.0114 31.1193 20.0234 31.0781 20.0234H28.8934C28.8604 20.0234 28.8279 20.0157 28.7987 20.001C28.7695 19.9863 28.7446 19.965 28.7261 19.9391C28.7076 19.9131 28.6961 19.8832 28.6926 19.8521C28.689 19.8209 28.6936 19.7894 28.7059 19.7603L33.7357 7.86715C33.7508 7.83162 33.7767 7.80119 33.8101 7.77977C33.8436 7.75836 33.883 7.74693 33.9234 7.74697H36.0152C36.0977 7.74697 36.1719 7.79453 36.2027 7.86715L41.2324 19.7602C41.2448 19.7893 41.2494 19.8208 41.2459 19.852C41.2424 19.8832 41.2309 19.9131 41.2124 19.9391C41.1939 19.9651 41.1689 19.9864 41.1397 20.0011C41.1105 20.0159 41.078 20.0235 41.0449 20.0235H38.8606C38.8194 20.0235 38.7791 20.0115 38.7453 19.9891C38.7114 19.9668 38.6856 19.9351 38.6713 19.8984L37.6788 17.36C37.6644 17.3233 37.6386 17.2916 37.6047 17.2693C37.5709 17.2469 37.5306 17.2349 37.4894 17.2349H37.4897ZM42.256 11.9209H44.1246C44.1782 11.9209 44.2295 11.9411 44.2674 11.977C44.3053 12.013 44.3266 12.0618 44.3266 12.1126V19.8316C44.3266 19.8825 44.3053 19.9313 44.2674 19.9672C44.2295 20.0032 44.1782 20.0234 44.1246 20.0234H42.256C42.2024 20.0234 42.151 20.0032 42.1131 19.9672C42.0753 19.9313 42.054 19.8825 42.054 19.8316V12.1125C42.054 12.0616 42.0753 12.0129 42.1131 11.9769C42.151 11.9409 42.2024 11.9207 42.256 11.9207V11.9209ZM51.1413 13.7985C51.1413 13.8494 51.1201 13.8981 51.0822 13.9341C51.0443 13.9701 50.9929 13.9903 50.9393 13.9903H50.8827C49.9588 13.9903 49.2811 14.2007 48.8501 14.6216C48.4188 15.0425 48.2035 15.7383 48.2035 16.7087V19.8316C48.2035 19.8825 48.1823 19.9313 48.1444 19.9672C48.1065 20.0032 48.0551 20.0234 48.0015 20.0234H46.1513C46.0977 20.0234 46.0463 20.0032 46.0084 19.9672C45.9705 19.9313 45.9492 19.8825 45.9492 19.8316V12.1125C45.9492 12.0616 45.9705 12.0129 46.0084 11.9769C46.0463 11.9409 46.0977 11.9207 46.1513 11.9207H47.9829C48.0365 11.9207 48.0879 11.9409 48.1258 11.9769C48.1637 12.0129 48.185 12.0616 48.185 12.1125V13.6393H48.222C48.4437 13.008 48.7947 12.523 49.2753 12.1837C49.7555 11.8448 50.3469 11.6751 51.0489 11.6751H51.1413V13.7984V13.7985ZM56.2505 13.7272C56.1969 13.7272 56.1455 13.7474 56.1076 13.7833C56.0697 13.8193 56.0484 13.8681 56.0484 13.9189V17.1296C56.0484 17.457 56.1158 17.6909 56.2516 17.8311C56.3869 17.9714 56.6211 18.0416 56.9536 18.0416H57.1396C57.1932 18.0416 57.2446 18.0618 57.2825 18.0977C57.3204 18.1337 57.3417 18.1825 57.3417 18.2333V19.849C57.3417 19.8999 57.3204 19.9487 57.2825 19.9846C57.2446 20.0206 57.1932 20.0408 57.1396 20.0408H56.3438C55.5185 20.0408 54.8842 19.8392 54.4408 19.4358C53.9972 19.0324 53.7755 18.4334 53.7755 17.6382V13.9189C53.7755 13.8681 53.7542 13.8193 53.7163 13.7833C53.6785 13.7474 53.6271 13.7272 53.5735 13.7272H52.4071C52.3535 13.7272 52.3021 13.707 52.2642 13.671C52.2263 13.635 52.2051 13.5862 52.2051 13.5354V12.1125C52.2051 12.0616 52.2263 12.0129 52.2642 11.9769C52.3021 11.9409 52.3535 11.9207 52.4071 11.9207H53.5736C53.6272 11.9207 53.6786 11.9005 53.7165 11.8646C53.7544 11.8286 53.7757 11.7798 53.7757 11.7289V8.86798C53.7757 8.81712 53.7969 8.76834 53.8348 8.73237C53.8727 8.69641 53.9241 8.6762 53.9777 8.6762H55.8463C55.8999 8.6762 55.9512 8.69641 55.9891 8.73237C56.027 8.76834 56.0483 8.81712 56.0483 8.86798V11.7289C56.0483 11.7798 56.0696 11.8286 56.1075 11.8646C56.1454 11.9005 56.1968 11.9207 56.2504 11.9207H57.6015C57.6551 11.9207 57.7065 11.9409 57.7444 11.9769C57.7823 12.0129 57.8036 12.0616 57.8036 12.1125V13.5355C57.8036 13.5864 57.7823 13.6352 57.7444 13.6711C57.7065 13.7071 57.6551 13.7273 57.6015 13.7273H56.2505V13.7272ZM64.8067 17.6207C65.2317 17.1998 65.4441 16.6503 65.4441 15.972C65.4441 15.2941 65.2317 14.7444 64.8067 14.3235C64.3818 13.9026 63.8243 13.6921 63.1345 13.6921C62.4445 13.6921 61.8874 13.9026 61.4623 14.3235C61.0375 14.7444 60.8249 15.2941 60.8249 15.972C60.8249 16.6503 61.0375 17.1998 61.4623 17.6207C61.8874 18.0416 62.4445 18.252 63.1345 18.252C63.8243 18.252 64.3818 18.0416 64.8067 17.6207ZM60.4923 19.7778C59.8641 19.4389 59.3681 18.9447 59.005 18.2959C58.6414 17.647 58.4598 16.8725 58.4598 15.972C58.4598 15.0719 58.6414 14.2971 59.005 13.6483C59.3681 12.9994 59.8641 12.5057 60.4923 12.1663C61.1206 11.8273 61.8102 11.6577 62.5617 11.6577C63.2269 11.6577 63.7965 11.7805 64.271 12.0259C64.7449 12.2714 65.1237 12.6165 65.4072 13.0608H65.4441V12.1125C65.4441 12.0616 65.4654 12.0129 65.5033 11.9769C65.5412 11.9409 65.5926 11.9207 65.6462 11.9207H67.4963C67.5499 11.9207 67.6013 11.9409 67.6392 11.9769C67.6771 12.0129 67.6983 12.0616 67.6983 12.1125V19.8315C67.6983 19.8824 67.6771 19.9311 67.6392 19.9671C67.6013 20.0031 67.5499 20.0233 67.4963 20.0233H65.6462C65.5926 20.0233 65.5412 20.0031 65.5033 19.9671C65.4654 19.9311 65.4441 19.8824 65.4441 19.8315V18.8833H65.4072C65.1237 19.3279 64.7449 19.6726 64.2709 19.9181C63.7965 20.1635 63.227 20.2863 62.5617 20.2863C61.8102 20.2863 61.1206 20.1167 60.4923 19.7778V19.7778ZM75.3928 17.6207C75.8178 17.1998 76.0302 16.6503 76.0302 15.972C76.0302 15.2941 75.8178 14.7444 75.3928 14.3235C74.9679 13.9026 74.4104 13.6921 73.7206 13.6921C73.0307 13.6921 72.4734 13.9026 72.0485 14.3235C71.6236 14.7444 71.4109 15.2941 71.4109 15.972C71.4109 16.6503 71.6236 17.1998 72.0485 17.6207C72.4734 18.0416 73.0307 18.252 73.7206 18.252C74.4104 18.252 74.9679 18.0416 75.3928 17.6207ZM72.5843 19.9181C72.11 19.6726 71.7311 19.3279 71.448 18.8833H71.4109V19.8315C71.4109 19.8824 71.3896 19.9311 71.3518 19.9671C71.3139 20.0031 71.2625 20.0233 71.2089 20.0233H69.3403C69.2867 20.0233 69.2354 20.0031 69.1975 19.9671C69.1596 19.9311 69.1383 19.8824 69.1383 19.8315V7.93836C69.1383 7.8875 69.1596 7.83872 69.1975 7.80275C69.2354 7.76679 69.2867 7.74658 69.3403 7.74658H71.2089C71.2625 7.74658 71.3139 7.76679 71.3518 7.80275C71.3896 7.83872 71.4109 7.8875 71.4109 7.93836V13.0607H71.448C71.7311 12.6164 72.11 12.2714 72.5843 12.0259C73.0584 11.7803 73.6282 11.6576 74.2935 11.6576C75.0447 11.6576 75.7347 11.8271 76.3629 12.1662C76.9911 12.5055 77.4868 12.9993 77.8503 13.648C78.2135 14.2973 78.3955 15.072 78.3955 15.9721C78.3955 16.8726 78.2135 17.647 77.8504 18.296C77.487 18.9448 76.9913 19.439 76.363 19.7778C75.7348 20.1169 75.0449 20.2865 74.2936 20.2865C73.6284 20.2865 73.0586 20.1638 72.5844 19.9182L72.5843 19.9181ZM81.5437 20.0234H79.6752C79.6216 20.0234 79.5702 20.0032 79.5323 19.9672C79.4944 19.9313 79.4731 19.8825 79.4731 19.8316V7.93875C79.4731 7.88788 79.4944 7.8391 79.5323 7.80314C79.5702 7.76717 79.6216 7.74697 79.6752 7.74697H81.5437C81.5973 7.74697 81.6487 7.76717 81.6866 7.80314C81.7245 7.8391 81.7458 7.88788 81.7458 7.93875V19.8316C81.7458 19.8825 81.7245 19.9313 81.6866 19.9672C81.6487 20.0032 81.5973 20.0234 81.5437 20.0234V20.0234ZM85.9514 13.7975C85.6415 14.0268 85.4324 14.358 85.3241 14.7912C85.2943 14.9106 85.3925 15.0251 85.5218 15.0251H89.0779C89.2013 15.0251 89.2982 14.9203 89.2783 14.8047C89.2072 14.3949 89.0221 14.0683 88.7229 13.8238C88.3719 13.5374 87.9129 13.3942 87.3463 13.3942C86.7796 13.3942 86.3145 13.5286 85.9514 13.7975V13.7975ZM90.5059 12.789C91.2327 13.5433 91.5961 14.6102 91.5961 15.9896V16.2188C91.5961 16.2696 91.5748 16.3184 91.5369 16.3544C91.499 16.3903 91.4476 16.4105 91.394 16.4105H85.4532C85.4236 16.4106 85.3944 16.4168 85.3676 16.4287C85.3408 16.4406 85.317 16.4578 85.298 16.4793C85.2789 16.5008 85.2651 16.526 85.2573 16.5531C85.2496 16.5803 85.2482 16.6086 85.2532 16.6363C85.3482 17.1488 85.587 17.5558 85.9698 17.8574C86.4069 18.2027 86.9584 18.3749 87.6235 18.3749C88.4822 18.3749 89.2771 18.0568 90.008 17.4204C90.0973 17.3427 90.2388 17.3592 90.3081 17.4537L91.2165 18.6913C91.245 18.7298 91.2575 18.7769 91.2518 18.8236C91.2461 18.8703 91.2225 18.9134 91.1855 18.9447C90.7397 19.3152 90.2439 19.6278 89.7114 19.8743C89.12 20.149 88.424 20.2865 87.6235 20.2865C86.6997 20.2865 85.8926 20.108 85.203 19.7516C84.5129 19.3951 83.9772 18.8924 83.5956 18.2433C83.2136 17.5945 83.0227 16.8433 83.0227 15.9896C83.0227 15.1364 83.2075 14.3823 83.577 13.7273C83.9465 13.0727 84.4639 12.5641 85.1291 12.2015C85.7943 11.8393 86.5703 11.6579 87.4573 11.6579C88.7625 11.6579 89.779 12.035 90.5059 12.789V12.789ZM44.5707 9.06718C44.5707 9.79057 43.9528 10.377 43.1906 10.377C42.4282 10.377 41.8103 9.79057 41.8103 9.06705C41.8103 8.34353 42.4283 7.75707 43.1906 7.75707C43.9528 7.75707 44.5707 8.34353 44.5707 9.06705" fill="#333333"/>
<path d="M10.6416 4.28797L1.75679 7.77746C1.26271 7.97154 1.26783 8.63779 1.76501 8.82483L10.6868 12.183C11.4707 12.4781 12.3437 12.4781 13.1276 12.183L22.0496 8.82471C22.5466 8.63779 22.552 7.97167 22.0576 7.77759L13.1731 4.28784C12.3626 3.96948 11.452 3.96948 10.6414 4.28784" fill="#FCB400"/>
<path d="M12.6987 14.0167V22.406C12.6987 22.8049 13.1226 23.0783 13.5134 22.9313L23.4551 19.2685C23.5659 19.2268 23.6611 19.1544 23.7281 19.0608C23.7951 18.9671 23.8309 18.8565 23.8309 18.7433V10.3541C23.8309 9.95509 23.407 9.68187 23.0162 9.8289L13.0745 13.4916C12.9637 13.5334 12.8686 13.6058 12.8016 13.6994C12.7346 13.793 12.6987 13.9036 12.6987 14.0168" fill="#18BFFF"/>
<path d="M10.377 14.4495L7.42654 15.8017L7.12697 15.9392L0.898717 18.7717C0.504047 18.9525 0 18.6794 0 18.2631V10.3892C0 10.2386 0.0813587 10.1085 0.190465 10.0107C0.235226 9.96843 0.286007 9.93228 0.341329 9.90334C0.490038 9.81858 0.702325 9.79595 0.882822 9.86371L10.3274 13.4157C10.8075 13.5965 10.8452 14.235 10.377 14.4497" fill="#F82B60"/>
<path d="M10.377 14.4495L7.42651 15.8017L0.19043 10.0106C0.235199 9.96835 0.28598 9.93224 0.341294 9.90334C0.490002 9.81858 0.702289 9.79595 0.882787 9.86371L10.3274 13.4157C10.8075 13.5965 10.8452 14.235 10.377 14.4497" fill="black" fill-opacity="0.25"/>
</g>
<defs>
<clipPath id="clip0_723_11699">
<rect width="91.7197" height="27.9482" fill="white"/>
</clipPath>
</defs>
</svg>
