<svg width="94" height="29" viewBox="0 0 94 29" fill="none" xmlns="http://www.w3.org/2000/svg">
<g clip-path="url(#clip0_723_11708)">
<path d="M7.6239 15.6234C7.6239 14.0686 6.4545 12.9759 5.01805 12.9759C3.58159 12.9759 2.41218 14.087 2.41218 15.6234C2.41218 17.1413 3.58159 18.271 5.01805 18.271C6.45595 18.2695 7.6239 17.1782 7.6239 15.6234ZM7.64444 20.251V19.0476C6.93574 19.881 5.88079 20.3983 4.61748 20.3983C1.99254 20.3983 0 18.3616 0 15.6234C0 12.9022 2.06884 10.8301 4.67617 10.8301C5.90283 10.8301 6.93725 11.3488 7.64589 12.1623V10.9959H10.0023V20.251H7.64444Z" fill="black"/>
<path d="M21.4483 18.1959C20.6238 18.1959 20.3948 17.8996 20.3948 17.1229V13.0141H21.9091V10.9959H20.3948V8.73809H17.9798V10.9959H14.8691V10.4332C14.8691 9.6551 15.1758 9.35887 16.0195 9.35887H16.5492V7.56314H15.3871C13.3945 7.56314 12.4555 8.19242 12.4555 10.1171V10.9945H11.1144V13.0127H12.4555V20.2495H14.8706V13.0127H17.9812V17.5481C17.9812 19.436 18.7281 20.251 20.6825 20.251H21.9281V18.1959H21.4483Z" fill="black"/>
<path d="M30.1097 14.79C29.938 13.5867 28.9212 12.8653 27.7342 12.8653C26.5457 12.8653 25.5686 13.5683 25.3206 14.79H30.1097ZM25.3 16.2342C25.4732 17.6034 26.4885 18.3815 27.7724 18.3815C28.7877 18.3815 29.5742 17.918 30.0334 17.1781H32.5057C31.9306 19.1397 30.1097 20.3983 27.7152 20.3983C24.8217 20.3983 22.791 18.4367 22.791 15.6418C22.791 12.8468 24.9376 10.8286 27.7738 10.8286C30.6291 10.8286 32.698 12.8653 32.698 15.6418C32.698 15.8459 32.6789 16.0486 32.6407 16.2342H25.3Z" fill="black"/>
<path d="M48.0529 15.6234C48.0529 14.1239 46.8835 12.9759 45.447 12.9759C44.0106 12.9759 42.8411 14.087 42.8411 15.6234C42.8411 17.1413 44.0106 18.271 45.447 18.271C46.8835 18.2695 48.0529 17.1229 48.0529 15.6234ZM40.4642 10.9959H42.8206V12.1992C43.5293 11.3474 44.5828 10.8301 45.8475 10.8301C48.4343 10.8301 50.4651 12.8852 50.4651 15.605C50.4651 18.3262 48.3962 20.3997 45.7904 20.3997C44.5828 20.3997 43.5865 19.9363 42.8969 19.1596V24.0593H40.4642V10.9959Z" fill="black"/>
<path d="M58.959 15.6234C58.959 14.0686 57.7911 12.9759 56.353 12.9759C54.9167 12.9759 53.7473 14.087 53.7473 15.6234C53.7473 17.1413 54.9167 18.271 56.353 18.271C57.7911 18.2695 58.959 17.1782 58.959 15.6234ZM58.9797 20.251V19.0476C58.271 19.881 57.2158 20.3983 55.9524 20.3983C53.3276 20.3983 51.3351 18.3616 51.3351 15.6234C51.3351 12.9022 53.404 10.8301 56.0099 10.8301C57.2364 10.8301 58.271 11.3488 58.9797 12.1623V10.9959H61.3362V20.251H58.9797Z" fill="black"/>
<path d="M36.2164 11.903C36.2164 11.903 36.8166 10.8301 38.2852 10.8301C38.9132 10.8301 39.3197 11.0384 39.3197 11.0384V13.3997C39.3197 13.3997 38.4335 12.871 37.6191 12.9773C36.8048 13.0836 36.2898 13.8064 36.2927 14.773V20.2524H33.86V10.9973H36.2164V11.903Z" fill="black"/>
<path d="M72.3417 10.9959L66.392 24.0295H63.8831L66.219 18.9909L62.2693 10.9959H65.113L67.4238 16.3377L69.7948 10.9959H72.3417Z" fill="black"/>
<path d="M91.3344 10.7861L85.436 7.49793C83.7044 6.53275 81.5404 7.73888 81.5404 9.67068V10.008C81.5404 10.3127 81.7089 10.5948 81.9818 10.7464L83.0956 11.3672C83.4226 11.55 83.8306 11.3219 83.8306 10.9576V10.1186C83.8306 9.69902 84.3004 9.43682 84.676 9.64659L89.7847 12.4954C90.1608 12.7051 90.1608 13.2296 89.7847 13.4379L84.676 16.2867C84.3004 16.4965 83.8306 16.2343 83.8306 15.8147V15.3683C83.8306 13.4365 81.6665 12.2289 79.9338 13.1955L74.0355 16.4837C72.3039 17.4489 72.3039 19.864 74.0355 20.8292L79.9338 24.1174C81.6648 25.0825 83.8306 23.8764 83.8306 21.9446V21.6073C83.8306 21.3026 83.662 21.0219 83.3892 20.8689L82.2753 20.2467C81.9483 20.0638 81.5404 20.292 81.5404 20.6563V21.4954C81.5404 21.9149 81.0711 22.177 80.695 21.9673L75.5862 19.1185C75.2107 18.9087 75.2107 18.3843 75.5862 18.1746L80.695 15.3257C81.0711 15.116 81.5404 15.3782 81.5404 15.7977V16.2442C81.5404 18.176 83.7044 19.3836 85.436 18.4169L91.3344 15.1288C93.0659 14.1664 93.0659 11.7513 91.3344 10.7861Z" fill="black"/>
</g>
<defs>
<clipPath id="clip0_723_11708">
<rect width="93.0561" height="28.6327" fill="white"/>
</clipPath>
</defs>
</svg>
