<svg width="19" height="14" viewBox="0 0 19 14" fill="none" xmlns="http://www.w3.org/2000/svg">
<path d="M9.04509 0.75C3.78925 0.75 1.23925 5.48583 0.786751 6.42333C0.762565 6.4732 0.75 6.52791 0.75 6.58333C0.75 6.63876 0.762565 6.69346 0.786751 6.74333C1.23842 7.68083 3.78842 12.4167 9.04509 12.4167C14.3018 12.4167 16.8509 7.68083 17.3034 6.74333C17.3276 6.69346 17.3402 6.63876 17.3402 6.58333C17.3402 6.52791 17.3276 6.4732 17.3034 6.42333C16.8518 5.48583 14.3018 0.75 9.04509 0.75Z" stroke="#BCBFC3" stroke-width="1.5" stroke-linecap="round" stroke-linejoin="round"/>
<path d="M9.04492 9.08325C10.4256 9.08325 11.5449 7.96396 11.5449 6.58325C11.5449 5.20254 10.4256 4.08325 9.04492 4.08325C7.66421 4.08325 6.54492 5.20254 6.54492 6.58325C6.54492 7.96396 7.66421 9.08325 9.04492 9.08325Z" stroke="#BCBFC3" stroke-width="1.5" stroke-linecap="round" stroke-linejoin="round"/>
</svg>
