<svg width="88" height="31" viewBox="0 0 88 31" fill="none" xmlns="http://www.w3.org/2000/svg">
<g clip-path="url(#clip0_723_11705)">
<path d="M0 1.27026H18.9335V10.5251H9.46673L0 1.27026ZM0 10.5251H9.46673L18.9335 19.78H0V10.5251ZM0 19.78H9.46673V29.0348L0 19.78Z" fill="black"/>
<path d="M29.6164 8.57144H37.2696V10.949H32.5131V14.253H37.2696V16.578H32.5131V20.8085H29.6164V8.57144ZM38.8431 12.3823H41.5792V14.148C41.7221 13.5412 42.0144 13.0754 42.4554 12.7494C42.9075 12.4111 43.4095 12.2426 43.9574 12.2426C44.2437 12.2426 44.4824 12.2663 44.6725 12.3124V14.795C44.3996 14.7628 44.125 14.7454 43.85 14.7425C43.099 14.7425 42.5333 14.9809 42.1513 15.4589C41.7706 15.9251 41.5792 16.6242 41.5792 17.557V20.8085H38.8444V12.3823H38.8431ZM48.9916 21.0359C48.1574 21.0359 47.4298 20.8432 46.81 20.4588C46.2019 20.0743 45.7185 19.5285 45.4153 18.8853C45.0935 18.2099 44.9315 17.4456 44.9315 16.5954C44.9315 15.7562 45.0996 14.9982 45.4331 14.3229C45.7458 13.6704 46.2421 13.1186 46.8637 12.732C47.4947 12.3476 48.2163 12.1549 49.0275 12.1549C49.6352 12.1549 50.1783 12.2836 50.6548 12.5398C51.1312 12.7968 51.489 13.1466 51.7276 13.5886V12.3823H54.4455V20.8085H51.7276V19.6195C51.489 20.0391 51.1195 20.3825 50.6188 20.651C50.1181 20.9105 49.5585 21.0427 48.9916 21.0359ZM49.7786 18.8154C50.4339 18.8154 50.9406 18.6058 51.2984 18.1862C51.6562 17.7666 51.835 17.236 51.835 16.5954C51.835 15.9662 51.6562 15.4416 51.2984 15.0219C50.9406 14.6023 50.4339 14.3927 49.7786 14.3927C49.1579 14.3927 48.6581 14.5964 48.2765 15.0046C47.9071 15.4128 47.7221 15.9425 47.7221 16.5954C47.7221 17.2483 47.9071 17.784 48.2765 18.2036C48.6581 18.6118 49.1588 18.8154 49.7786 18.8154ZM56.359 12.3823H59.095V13.606C59.2864 13.1741 59.5957 12.8243 60.0245 12.5572C60.4663 12.29 60.9786 12.1549 61.5625 12.1549C62.9216 12.1549 63.8221 12.6732 64.2626 13.711C64.5051 13.2406 64.8845 12.8514 65.3536 12.5923C65.8552 12.2972 66.4312 12.146 67.0164 12.1549C69.0551 12.1549 70.0742 13.2965 70.0742 15.5813V20.8085H67.3204V16.0708C67.3204 15.5004 67.213 15.0808 66.9986 14.8123C66.7838 14.5447 66.462 14.4101 66.0327 14.4101C65.568 14.4101 65.2102 14.5676 64.9599 14.8822C64.7096 15.1854 64.5844 15.7151 64.5844 16.473V20.8085H61.8306V16.0534C61.8306 15.4826 61.7236 15.0685 61.5088 14.8123C61.307 14.5447 60.9903 14.4101 60.562 14.4101C60.0847 14.4101 59.7209 14.5676 59.4705 14.8822C59.2202 15.1854 59.095 15.7151 59.095 16.473V20.8085H56.3598V12.3823H56.359ZM80.3522 16.1584C80.3522 16.5192 80.3279 16.91 80.2794 17.3296H73.9147C73.9389 17.8775 74.1291 18.2963 74.4868 18.5885C74.8446 18.8794 75.3284 19.0254 75.9352 19.0254C76.7819 19.0254 77.3186 18.7744 77.5447 18.2734H80.227C80.0953 19.1012 79.6306 19.7707 78.8319 20.2839C78.0454 20.7848 77.0795 21.0359 75.9352 21.0359C74.4574 21.0359 73.2949 20.6451 72.4481 19.8643C71.6139 19.083 71.1964 17.994 71.1964 16.5954C71.1964 15.6863 71.387 14.8996 71.7686 14.2352C72.1372 13.5717 72.7054 13.0348 73.3958 12.6969C74.0996 12.3361 74.9161 12.1549 75.8468 12.1549C76.7282 12.1549 77.5087 12.3239 78.1883 12.6622C78.8795 13.0005 79.4106 13.4722 79.7796 14.0781C80.1616 14.6849 80.3522 15.378 80.3522 16.1584ZM77.6508 15.6689C77.6391 15.1096 77.4784 14.6836 77.1679 14.3927C76.8586 14.1018 76.4108 13.9557 75.8269 13.9557C75.2431 13.9557 74.7783 14.1128 74.4323 14.4279C74.0988 14.731 73.9259 15.1443 73.9134 15.6689H77.6508ZM81.5584 12.3823H84.2944V14.148C84.4374 13.5412 84.7297 13.0754 85.1706 12.7494C85.5985 12.42 86.1278 12.2413 86.6727 12.2426C86.9586 12.2426 87.1976 12.2663 87.3878 12.3124V14.795C87.1149 14.7628 86.8403 14.7454 86.5653 14.7425C85.8142 14.7425 85.2486 14.9809 84.8666 15.4589C84.4846 15.9251 84.2944 16.6242 84.2944 17.557V20.8085H81.5584V12.3823Z" fill="black"/>
</g>
<defs>
<clipPath id="clip0_723_11705">
<rect width="87.707" height="30.4868" fill="white"/>
</clipPath>
</defs>
</svg>
