<svg width="24" height="24" viewBox="0 0 24 24" fill="none" xmlns="http://www.w3.org/2000/svg">
<g clip-path="url(#clip0_723_11300)">
<path d="M0 15.998H23.9978V23.9989H0V15.998Z" fill="#1EB53A"/>
<path d="M0 0H23.9978V8.00083H0V0Z" fill="#0099B5"/>
<path d="M0 7.67749H23.9978V16.3204H0V7.67749Z" fill="#CE1126"/>
<path d="M0 8.15625H23.9978V15.843H0V8.15625Z" fill="white"/>
<path d="M6.72112 6.7169C8.31052 6.7169 9.59898 5.42844 9.59898 3.83904C9.59898 2.24964 8.31052 0.961182 6.72112 0.961182C5.13172 0.961182 3.84326 2.24964 3.84326 3.83904C3.84326 5.42844 5.13172 6.7169 6.72112 6.7169Z" fill="white"/>
<path d="M7.67767 6.7169C9.26707 6.7169 10.5555 5.42844 10.5555 3.83904C10.5555 2.24964 9.26707 0.961182 7.67767 0.961182C6.08827 0.961182 4.7998 2.24964 4.7998 3.83904C4.7998 5.42844 6.08827 6.7169 7.67767 6.7169Z" fill="#0099B5"/>
<path d="M13.0535 5.56445L12.8711 6.1116L13.1495 6.20759" fill="white"/>
<path d="M13.0535 5.56445L13.2358 6.1116L12.9575 6.20759" fill="white"/>
<path d="M13.6013 5.96252L13.0246 5.95814L13.0193 6.25255" fill="white"/>
<path d="M13.6014 5.96326L13.1373 6.3058L12.96 6.07071" fill="white"/>
<path d="M12.5056 5.96155L12.9696 6.30409L13.1469 6.069" fill="white"/>
<path d="M12.5057 5.96057L13.0824 5.95619L13.0877 6.2506" fill="white"/>
<path d="M13.3925 6.6072L13.2184 6.05735L12.9368 6.14331" fill="white"/>
<path d="M13.3927 6.60764L12.9235 6.27219L13.0923 6.03091" fill="white"/>
<path d="M12.7152 6.60569L13.1844 6.27024L13.0156 6.02895" fill="white"/>
<path d="M12.7154 6.60525L12.8895 6.05539L13.1711 6.14136" fill="white"/>
<path d="M13.0535 3.25977L12.8711 3.80692L13.1495 3.90291" fill="white"/>
<path d="M13.0535 3.25977L13.2358 3.80692L12.9575 3.90291" fill="white"/>
<path d="M13.6013 3.65978L13.0246 3.65541L13.0193 3.94982" fill="white"/>
<path d="M13.6014 3.65857L13.1373 4.00111L12.96 3.76602" fill="white"/>
<path d="M12.5056 3.65857L12.9696 4.00111L13.1469 3.76602" fill="white"/>
<path d="M12.5057 3.65783L13.0824 3.65345L13.0877 3.94787" fill="white"/>
<path d="M13.393 4.30251L13.2189 3.75266L12.9373 3.83862" fill="white"/>
<path d="M13.3932 4.301L12.924 3.96555L13.0928 3.72427" fill="white"/>
<path d="M12.7157 4.30295L13.1849 3.9675L13.0161 3.72622" fill="white"/>
<path d="M12.7154 4.30251L12.8895 3.75266L13.1711 3.83862" fill="white"/>
<path d="M13.0535 0.957031L12.8711 1.50418L13.1495 1.60017" fill="white"/>
<path d="M13.0535 0.957031L13.2358 1.50418L12.9575 1.60017" fill="white"/>
<path d="M13.6013 1.3551L13.0246 1.35072L13.0193 1.64513" fill="white"/>
<path d="M13.6014 1.35584L13.1373 1.69838L12.96 1.46329" fill="white"/>
<path d="M12.5056 1.35389L12.9696 1.69642L13.1469 1.46134" fill="white"/>
<path d="M12.5057 1.3551L13.0824 1.35072L13.0877 1.64513" fill="white"/>
<path d="M13.3925 1.99978L13.2184 1.44992L12.9368 1.53589" fill="white"/>
<path d="M13.3927 2.00022L12.9235 1.66477L13.0923 1.42349" fill="white"/>
<path d="M12.7152 1.99851L13.1844 1.66306L13.0156 1.42178" fill="white"/>
<path d="M12.7154 1.99783L12.8895 1.44797L13.1711 1.53394" fill="white"/>
<path d="M15.3567 5.56445L15.1743 6.1116L15.4527 6.20759" fill="white"/>
<path d="M15.3567 5.56445L15.5391 6.1116L15.2607 6.20759" fill="white"/>
<path d="M15.9045 5.96252L15.3278 5.95814L15.3225 6.25255" fill="white"/>
<path d="M15.9046 5.96326L15.4406 6.3058L15.2633 6.07071" fill="white"/>
<path d="M14.8093 5.96131L15.2733 6.30384L15.4506 6.06876" fill="white"/>
<path d="M14.8094 5.96252L15.3861 5.95814L15.3914 6.25255" fill="white"/>
<path d="M15.6952 6.60525L15.5212 6.05539L15.2395 6.14136" fill="white"/>
<path d="M15.6954 6.60569L15.2262 6.27024L15.395 6.02895" fill="white"/>
<path d="M15.018 6.60569L15.4871 6.27024L15.3183 6.02895" fill="white"/>
<path d="M15.0182 6.60525L15.1922 6.05539L15.4738 6.14136" fill="white"/>
<path d="M15.3572 3.25977L15.1748 3.80692L15.4532 3.90291" fill="white"/>
<path d="M15.3572 3.25977L15.5396 3.80692L15.2612 3.90291" fill="white"/>
<path d="M15.905 3.65978L15.3283 3.65541L15.323 3.94982" fill="white"/>
<path d="M15.9051 3.65857L15.4411 4.00111L15.2637 3.76602" fill="white"/>
<path d="M14.8093 3.65857L15.2733 4.00111L15.4506 3.76602" fill="white"/>
<path d="M14.8094 3.65783L15.3861 3.65345L15.3914 3.94787" fill="white"/>
<path d="M15.6967 4.30227L15.5226 3.75241L15.241 3.83838" fill="white"/>
<path d="M15.6969 4.30271L15.2277 3.96726L15.3965 3.72598" fill="white"/>
<path d="M15.0194 4.30271L15.4886 3.96726L15.3198 3.72598" fill="white"/>
<path d="M15.0191 4.30227L15.1932 3.75241L15.4748 3.83838" fill="white"/>
<path d="M15.3572 0.957031L15.1748 1.50418L15.4532 1.60017" fill="white"/>
<path d="M15.3572 0.957031L15.5396 1.50418L15.2612 1.60017" fill="white"/>
<path d="M15.905 1.3551L15.3283 1.35072L15.323 1.64513" fill="white"/>
<path d="M15.9051 1.35584L15.4411 1.69838L15.2637 1.46329" fill="white"/>
<path d="M14.8093 1.35389L15.2733 1.69642L15.4506 1.46134" fill="white"/>
<path d="M14.8094 1.3551L15.3861 1.35072L15.3914 1.64513" fill="white"/>
<path d="M15.6957 1.99978L15.5217 1.44992L15.24 1.53589" fill="white"/>
<path d="M15.6959 2.00022L15.2267 1.66477L15.3955 1.42349" fill="white"/>
<path d="M15.0185 1.99851L15.4876 1.66306L15.3188 1.42178" fill="white"/>
<path d="M15.0186 1.99783L15.1927 1.44797L15.4743 1.53394" fill="white"/>
<path d="M17.6609 5.56445L17.4785 6.1116L17.7569 6.20759" fill="white"/>
<path d="M17.6609 5.56445L17.8433 6.1116L17.5649 6.20759" fill="white"/>
<path d="M18.2087 5.96252L17.632 5.95814L17.6267 6.25255" fill="white"/>
<path d="M18.2088 5.96326L17.7448 6.3058L17.5675 6.07071" fill="white"/>
<path d="M17.113 5.96131L17.577 6.30384L17.7543 6.06876" fill="white"/>
<path d="M17.1131 5.96252L17.6898 5.95814L17.6951 6.25255" fill="white"/>
<path d="M17.9989 6.60525L17.8249 6.05539L17.5432 6.14136" fill="white"/>
<path d="M17.9991 6.60569L17.53 6.27024L17.6987 6.02895" fill="white"/>
<path d="M17.3222 6.60569L17.7913 6.27024L17.6225 6.02895" fill="white"/>
<path d="M17.3219 6.60525L17.4959 6.05539L17.7776 6.14136" fill="white"/>
<path d="M17.6609 3.25977L17.4785 3.80692L17.7569 3.90291" fill="white"/>
<path d="M17.6609 3.25977L17.8433 3.80692L17.5649 3.90291" fill="white"/>
<path d="M18.2082 3.65978L17.6315 3.65541L17.6262 3.94982" fill="white"/>
<path d="M18.2083 3.65857L17.7443 4.00111L17.567 3.76602" fill="white"/>
<path d="M17.113 3.65833L17.577 4.00087L17.7543 3.76578" fill="white"/>
<path d="M17.1131 3.65759L17.6898 3.65321L17.6951 3.94762" fill="white"/>
<path d="M17.9994 4.30227L17.8254 3.75241L17.5437 3.83838" fill="white"/>
<path d="M17.9996 4.30271L17.5304 3.96726L17.6992 3.72598" fill="white"/>
<path d="M17.3222 4.30271L17.7913 3.96726L17.6225 3.72598" fill="white"/>
<path d="M17.3224 4.30203L17.4964 3.75217L17.778 3.83814" fill="white"/>
<path d="M17.6609 0.957031L17.4785 1.50418L17.7569 1.60017" fill="white"/>
<path d="M17.6609 0.957031L17.8433 1.50418L17.5649 1.60017" fill="white"/>
<path d="M18.2087 1.3551L17.632 1.35072L17.6267 1.64513" fill="white"/>
<path d="M18.2088 1.35584L17.7448 1.69838L17.5675 1.46329" fill="white"/>
<path d="M17.113 1.35389L17.577 1.69642L17.7543 1.46134" fill="white"/>
<path d="M17.1131 1.3551L17.6898 1.35072L17.6951 1.64513" fill="white"/>
<path d="M17.9994 1.99978L17.8254 1.44992L17.5437 1.53589" fill="white"/>
<path d="M17.9996 2.00022L17.5304 1.66477L17.6992 1.42349" fill="white"/>
<path d="M17.3222 1.99875L17.7913 1.6633L17.6225 1.42202" fill="white"/>
<path d="M17.3224 1.99807L17.4964 1.44822L17.778 1.53418" fill="white"/>
<path d="M8.44606 5.56445L8.26367 6.1116L8.54205 6.20759" fill="white"/>
<path d="M8.44603 5.56445L8.62842 6.1116L8.35004 6.20759" fill="white"/>
<path d="M8.99386 5.96252L8.41713 5.95814L8.41186 6.25255" fill="white"/>
<path d="M8.99393 5.96326L8.52992 6.3058L8.35261 6.07071" fill="white"/>
<path d="M7.89864 5.96131L8.36266 6.30384L8.53997 6.06876" fill="white"/>
<path d="M7.89823 5.96252L8.47496 5.95814L8.48023 6.25255" fill="white"/>
<path d="M8.78458 6.60525L8.61052 6.05539L8.32889 6.14136" fill="white"/>
<path d="M8.78476 6.60569L8.3156 6.27024L8.48439 6.02895" fill="white"/>
<path d="M8.10733 6.60569L8.57649 6.27024L8.4077 6.02895" fill="white"/>
<path d="M8.10751 6.60525L8.28157 6.05539L8.5632 6.14136" fill="white"/>
<path d="M10.7498 5.56445L10.5674 6.1116L10.8458 6.20759" fill="white"/>
<path d="M10.7497 5.56445L10.9321 6.1116L10.6538 6.20759" fill="white"/>
<path d="M11.2976 5.96252L10.7208 5.95814L10.7156 6.25255" fill="white"/>
<path d="M11.2976 5.96326L10.8336 6.3058L10.6563 6.07071" fill="white"/>
<path d="M10.2019 5.96131L10.6659 6.30384L10.8432 6.06876" fill="white"/>
<path d="M10.2019 5.96252L10.7787 5.95814L10.7839 6.25255" fill="white"/>
<path d="M11.0878 6.60525L10.9137 6.05539L10.6321 6.14136" fill="white"/>
<path d="M11.088 6.60569L10.6188 6.27024L10.7876 6.02895" fill="white"/>
<path d="M10.4106 6.60569L10.8797 6.27024L10.7109 6.02895" fill="white"/>
<path d="M10.4107 6.60525L10.5848 6.05539L10.8664 6.14136" fill="white"/>
<path d="M10.7498 3.25977L10.5674 3.80692L10.8458 3.90291" fill="white"/>
<path d="M10.7497 3.25977L10.9321 3.80692L10.6538 3.90291" fill="white"/>
<path d="M11.2976 3.65978L10.7208 3.65541L10.7156 3.94982" fill="white"/>
<path d="M11.2976 3.65857L10.8336 4.00111L10.6563 3.76602" fill="white"/>
<path d="M10.2019 3.65833L10.6659 4.00087L10.8432 3.76578" fill="white"/>
<path d="M10.2019 3.65759L10.7787 3.65321L10.7839 3.94762" fill="white"/>
<path d="M11.0883 4.30227L10.9142 3.75241L10.6326 3.83838" fill="white"/>
<path d="M11.0885 4.30271L10.6193 3.96726L10.7881 3.72598" fill="white"/>
<path d="M10.411 4.30271L10.8802 3.96726L10.7114 3.72598" fill="white"/>
<path d="M10.4112 4.30203L10.5853 3.75217L10.8669 3.83814" fill="white"/>
</g>
<defs>
<clipPath id="clip0_723_11300">
<rect width="23.9978" height="23.9978" rx="8.99918" fill="white"/>
</clipPath>
</defs>
</svg>
