<svg width="197" height="28" viewBox="0 0 197 28" fill="none" xmlns="http://www.w3.org/2000/svg">
<path d="M-7.80821e-05 28V-1.90735e-06H5.67992V5.6H16.3599L20.9199 10.16V23.44L16.3599 28H-7.80821e-05ZM5.67992 23.2H15.2399V10.4H5.67992V23.2ZM24.5246 23.76V9.84L28.7646 5.6H40.6846L44.9246 9.84V23.76L40.6846 28H28.7646L24.5246 23.76ZM30.2046 23.36H39.2446V10.24H30.2046V23.36ZM48.509 23.76V9.84L52.749 5.6H67.069V10.72H54.189V22.88H67.069V28H52.749L48.509 23.76ZM70.1952 28V-1.90735e-06H75.8752V5.6H86.4352L90.8352 10V28H85.1552V10.4H75.8752V28H70.1952ZM94.9999 28V-1.90735e-06H100.68V13.96H105.6L110.2 5.6H116.64L110.32 15.92L117 28H110.6L105.88 18.76H100.68V28H94.9999ZM118.936 23.6V15.2L133.496 14.8V10.4H119.736V5.6H134.776L139.176 10V28H123.336L118.936 23.6ZM124.616 18.72V23.36H133.496V17.92L124.616 18.72ZM143.8 28V22.4H149.16V28H143.8ZM174.429 5.6V28H158.189L153.789 23.6V5.6H159.469V23.04H168.749V5.6H174.429ZM177.554 28V24L189.554 10.4H177.714V5.6H196.554V9.6L184.554 23.2H196.674V28H177.554Z" fill="white"/>
</svg>
